<svg xmlns="http://www.w3.org/2000/svg" viewBox="0 0 400 540" width="400" height="540">
  <defs>
    <style>
      @import url('https://fonts.googleapis.com/css2?family=Inter:wght@400;600;700;800&amp;display=swap');
    </style>
  </defs>

  <!-- Background -->
  <rect width="400" height="540" fill="#ffffff" rx="4"/>
  <rect x="0" y="0" width="400" height="540" fill="#fafbfc" rx="4"/>

  <!-- Scattered small dots (confetti) -->
  <circle cx="50" cy="30" r="2" fill="#00b4d8" opacity="0.3"/>
  <circle cx="120" cy="20" r="1.5" fill="#f7941d" opacity="0.3"/>
  <circle cx="200" cy="15" r="2" fill="#8b3fa0" opacity="0.25"/>
  <circle cx="280" cy="25" r="1.5" fill="#6bbf4e" opacity="0.3"/>
  <circle cx="340" cy="40" r="2" fill="#e84d3d" opacity="0.25"/>
  <circle cx="360" cy="80" r="1.5" fill="#00b4d8" opacity="0.3"/>
  <circle cx="30" cy="100" r="1.5" fill="#f7941d" opacity="0.25"/>
  <circle cx="370" cy="150" r="2" fill="#8b3fa0" opacity="0.3"/>
  <circle cx="350" cy="200" r="1.5" fill="#6bbf4e" opacity="0.25"/>
  <circle cx="20" cy="250" r="2" fill="#e84d3d" opacity="0.3"/>
  <circle cx="380" cy="300" r="1.5" fill="#00b4d8" opacity="0.25"/>
  <circle cx="40" cy="350" r="2" fill="#f7941d" opacity="0.3"/>
  <circle cx="360" cy="380" r="1.5" fill="#8b3fa0" opacity="0.25"/>
  <circle cx="25" cy="450" r="2" fill="#6bbf4e" opacity="0.3"/>
  <circle cx="375" cy="460" r="1.5" fill="#e84d3d" opacity="0.25"/>
  <circle cx="90" cy="50" r="1" fill="#e91e8c" opacity="0.2"/>
  <circle cx="310" cy="60" r="1" fill="#00b4d8" opacity="0.2"/>
  <circle cx="60" cy="180" r="1.5" fill="#8b3fa0" opacity="0.2"/>
  <circle cx="350" cy="250" r="1" fill="#f7941d" opacity="0.2"/>
  <circle cx="45" cy="400" r="1" fill="#00b4d8" opacity="0.2"/>
  <circle cx="355" cy="420" r="1.5" fill="#6bbf4e" opacity="0.2"/>
  <circle cx="160" cy="45" r="1" fill="#e84d3d" opacity="0.2"/>
  <circle cx="250" cy="35" r="1.5" fill="#6bbf4e" opacity="0.2"/>
  <circle cx="80" cy="470" r="1" fill="#f7941d" opacity="0.2"/>
  <circle cx="320" cy="490" r="1.5" fill="#8b3fa0" opacity="0.2"/>

  <!-- Molecular Network Graphic -->
  <!-- Connections (lines) -->
  <line x1="85" y1="120" x2="110" y2="155" stroke="#8b3fa0" stroke-width="2" opacity="0.5"/>
  <line x1="110" y1="155" x2="75" y2="185" stroke="#7040b0" stroke-width="2" opacity="0.5"/>
  <line x1="110" y1="155" x2="145" y2="175" stroke="#5060c0" stroke-width="2" opacity="0.5"/>
  <line x1="75" y1="185" x2="50" y2="220" stroke="#2080c0" stroke-width="2" opacity="0.5"/>
  <line x1="75" y1="185" x2="110" y2="215" stroke="#0090c0" stroke-width="2" opacity="0.5"/>
  <line x1="145" y1="175" x2="170" y2="210" stroke="#00a0c8" stroke-width="2" opacity="0.5"/>
  <line x1="145" y1="175" x2="180" y2="165" stroke="#00b4d8" stroke-width="2" opacity="0.5"/>
  <line x1="50" y1="220" x2="80" y2="255" stroke="#00b4d8" stroke-width="2" opacity="0.5"/>
  <line x1="110" y1="215" x2="80" y2="255" stroke="#20b880" stroke-width="2" opacity="0.5"/>
  <line x1="110" y1="215" x2="145" y2="250" stroke="#40c060" stroke-width="2" opacity="0.5"/>
  <line x1="170" y1="210" x2="145" y2="250" stroke="#60c840" stroke-width="2" opacity="0.5"/>
  <line x1="80" y1="255" x2="110" y2="290" stroke="#80c840" stroke-width="2" opacity="0.5"/>
  <line x1="145" y1="250" x2="110" y2="290" stroke="#a0c030" stroke-width="2" opacity="0.5"/>
  <line x1="145" y1="250" x2="180" y2="275" stroke="#c0b020" stroke-width="2" opacity="0.5"/>
  <line x1="110" y1="290" x2="140" y2="320" stroke="#e0a010" stroke-width="2" opacity="0.5"/>
  <line x1="180" y1="275" x2="140" y2="320" stroke="#f09010" stroke-width="2" opacity="0.5"/>
  <line x1="140" y1="320" x2="110" y2="350" stroke="#f07020" stroke-width="2" opacity="0.5"/>
  <line x1="140" y1="320" x2="170" y2="345" stroke="#e85030" stroke-width="2" opacity="0.5"/>

  <!-- Nodes (circles) - gradient from purple to red -->
  <circle cx="85" cy="120" r="8" fill="#8b3fa0"/>
  <circle cx="110" cy="155" r="10" fill="#7040b0"/>
  <circle cx="75" cy="185" r="7" fill="#5060c0"/>
  <circle cx="145" cy="175" r="6" fill="#2080d0"/>
  <circle cx="180" cy="165" r="5" fill="#00b4d8"/>
  <circle cx="50" cy="220" r="8" fill="#00a0c8"/>
  <circle cx="110" cy="215" r="6" fill="#00b4b0"/>
  <circle cx="170" cy="210" r="7" fill="#20b880"/>
  <circle cx="80" cy="255" r="9" fill="#40c060"/>
  <circle cx="145" cy="250" r="6" fill="#6bbf4e"/>
  <circle cx="110" cy="290" r="8" fill="#a0c030"/>
  <circle cx="180" cy="275" r="5" fill="#d0b020"/>
  <circle cx="140" cy="320" r="10" fill="#f7941d"/>
  <circle cx="110" cy="350" r="7" fill="#e84d3d"/>
  <circle cx="170" cy="345" r="6" fill="#e84d3d"/>

  <!-- Small satellite nodes -->
  <circle cx="65" cy="110" r="4" fill="#e91e8c"/>
  <circle cx="100" cy="130" r="3" fill="#8b3fa0" opacity="0.7"/>
  <circle cx="130" cy="140" r="3.5" fill="#7040b0" opacity="0.7"/>
  <circle cx="55" cy="195" r="3" fill="#3070c0" opacity="0.7"/>
  <circle cx="185" cy="185" r="3" fill="#00b4d8" opacity="0.7"/>
  <circle cx="35" cy="240" r="4" fill="#00a0c8" opacity="0.7"/>
  <circle cx="190" cy="230" r="3" fill="#40c060" opacity="0.7"/>
  <circle cx="60" cy="270" r="3.5" fill="#6bbf4e" opacity="0.7"/>
  <circle cx="165" cy="265" r="3" fill="#c0b020" opacity="0.7"/>
  <circle cx="90" cy="305" r="3" fill="#d0a020" opacity="0.7"/>
  <circle cx="160" cy="310" r="3.5" fill="#f09010" opacity="0.7"/>
  <circle cx="95" cy="360" r="4" fill="#e84d3d" opacity="0.7"/>

  <!-- Subtitle -->
  <text x="200" y="100" text-anchor="middle" font-family="Inter, Arial, sans-serif" font-size="13" fill="#666666" font-weight="400">
    <tspan x="200" dy="0">A Framework for Designing and Building</tspan>
    <tspan x="200" dy="18">Impactful <tspan fill="#00b4d8" font-weight="600">AI-Powered</tspan> Applications</tspan>
  </text>

  <!-- Main Title -->
  <text x="215" y="410" text-anchor="middle" font-family="Inter, Arial, sans-serif" font-weight="800" fill="#1a3a5c">
    <tspan x="230" dy="0" font-size="42">Making</tspan>
    <tspan x="230" dy="52" font-size="52" fill="#00b4d8">AI</tspan>
    <tspan x="230" dy="46" font-size="30">Work for</tspan>
    <tspan x="230" dy="38" font-size="34">People</tspan>
  </text>

  <!-- Author Name -->
  <text x="230" y="530" text-anchor="middle" font-family="Inter, Arial, sans-serif" font-size="15" fill="#00b4d8" font-weight="700" letter-spacing="1">ASMAA IBRAHIM</text>

  <!-- Thin border -->
  <rect x="0.5" y="0.5" width="399" height="539" fill="none" stroke="#e2e8f0" stroke-width="1" rx="4"/>
</svg>