<svg xmlns="http://www.w3.org/2000/svg" viewBox="0 0 400 520" width="400" height="520">
  <defs>
    <style>
      @import url('https://fonts.googleapis.com/css2?family=Inter:wght@400;600;700;800&amp;display=swap');
    </style>
  </defs>

  <!-- Background -->
  <rect width="400" height="520" fill="#fafbfc" rx="4"/>

  <!-- Scattered small dots (confetti) -->
  <circle cx="50" cy="30" r="2" fill="#00b4d8" opacity="0.3"/>
  <circle cx="120" cy="20" r="1.5" fill="#f7941d" opacity="0.3"/>
  <circle cx="200" cy="15" r="2" fill="#8b3fa0" opacity="0.25"/>
  <circle cx="280" cy="25" r="1.5" fill="#6bbf4e" opacity="0.3"/>
  <circle cx="340" cy="40" r="2" fill="#e84d3d" opacity="0.25"/>
  <circle cx="360" cy="80" r="1.5" fill="#00b4d8" opacity="0.3"/>
  <circle cx="30" cy="100" r="1.5" fill="#f7941d" opacity="0.25"/>
  <circle cx="370" cy="150" r="2" fill="#8b3fa0" opacity="0.3"/>
  <circle cx="350" cy="200" r="1.5" fill="#6bbf4e" opacity="0.25"/>
  <circle cx="20" cy="250" r="2" fill="#e84d3d" opacity="0.3"/>
  <circle cx="380" cy="300" r="1.5" fill="#00b4d8" opacity="0.25"/>
  <circle cx="40" cy="340" r="2" fill="#f7941d" opacity="0.3"/>
  <circle cx="360" cy="360" r="1.5" fill="#8b3fa0" opacity="0.25"/>
  <circle cx="25" cy="430" r="2" fill="#6bbf4e" opacity="0.3"/>
  <circle cx="375" cy="440" r="1.5" fill="#e84d3d" opacity="0.25"/>
  <circle cx="90" cy="50" r="1" fill="#e91e8c" opacity="0.2"/>
  <circle cx="310" cy="60" r="1" fill="#00b4d8" opacity="0.2"/>
  <circle cx="60" cy="180" r="1.5" fill="#8b3fa0" opacity="0.2"/>
  <circle cx="350" cy="250" r="1" fill="#f7941d" opacity="0.2"/>
  <circle cx="45" cy="380" r="1" fill="#00b4d8" opacity="0.2"/>
  <circle cx="355" cy="400" r="1.5" fill="#6bbf4e" opacity="0.2"/>
  <circle cx="160" cy="45" r="1" fill="#e84d3d" opacity="0.2"/>
  <circle cx="250" cy="35" r="1.5" fill="#6bbf4e" opacity="0.2"/>
  <circle cx="80" cy="450" r="1" fill="#f7941d" opacity="0.2"/>
  <circle cx="320" cy="470" r="1.5" fill="#8b3fa0" opacity="0.2"/>

  <!-- Subtitle -->
  <text x="200" y="80" text-anchor="middle" font-family="Inter, Arial, sans-serif" font-size="13" fill="#666666" font-weight="400">
    <tspan x="200" dy="0">A Framework for Designing and Building</tspan>
    <tspan x="200" dy="18">Impactful <tspan fill="#00b4d8" font-weight="600">AI-Powered</tspan> Applications</tspan>
  </text>

  <!-- Molecular Network Graphic - centered -->
  <!-- Connections (lines) -->
  <line x1="165" y1="130" x2="190" y2="160" stroke="#8b3fa0" stroke-width="2" opacity="0.5"/>
  <line x1="190" y1="160" x2="155" y2="185" stroke="#7040b0" stroke-width="2" opacity="0.5"/>
  <line x1="190" y1="160" x2="225" y2="178" stroke="#5060c0" stroke-width="2" opacity="0.5"/>
  <line x1="155" y1="185" x2="130" y2="215" stroke="#2080c0" stroke-width="2" opacity="0.5"/>
  <line x1="155" y1="185" x2="190" y2="210" stroke="#0090c0" stroke-width="2" opacity="0.5"/>
  <line x1="225" y1="178" x2="248" y2="205" stroke="#00a0c8" stroke-width="2" opacity="0.5"/>
  <line x1="225" y1="178" x2="258" y2="168" stroke="#00b4d8" stroke-width="2" opacity="0.5"/>
  <line x1="130" y1="215" x2="158" y2="245" stroke="#00b4d8" stroke-width="2" opacity="0.5"/>
  <line x1="190" y1="210" x2="158" y2="245" stroke="#20b880" stroke-width="2" opacity="0.5"/>
  <line x1="190" y1="210" x2="225" y2="240" stroke="#40c060" stroke-width="2" opacity="0.5"/>
  <line x1="248" y1="205" x2="225" y2="240" stroke="#60c840" stroke-width="2" opacity="0.5"/>
  <line x1="158" y1="245" x2="188" y2="272" stroke="#80c840" stroke-width="2" opacity="0.5"/>
  <line x1="225" y1="240" x2="188" y2="272" stroke="#a0c030" stroke-width="2" opacity="0.5"/>
  <line x1="225" y1="240" x2="255" y2="260" stroke="#c0b020" stroke-width="2" opacity="0.5"/>
  <line x1="188" y1="272" x2="215" y2="298" stroke="#e0a010" stroke-width="2" opacity="0.5"/>
  <line x1="255" y1="260" x2="215" y2="298" stroke="#f09010" stroke-width="2" opacity="0.5"/>
  <line x1="215" y1="298" x2="190" y2="320" stroke="#f07020" stroke-width="2" opacity="0.5"/>
  <line x1="215" y1="298" x2="245" y2="315" stroke="#e85030" stroke-width="2" opacity="0.5"/>

  <!-- Nodes (circles) - gradient from purple to red -->
  <circle cx="165" cy="130" r="8" fill="#8b3fa0"/>
  <circle cx="190" cy="160" r="10" fill="#7040b0"/>
  <circle cx="155" cy="185" r="7" fill="#5060c0"/>
  <circle cx="225" cy="178" r="6" fill="#2080d0"/>
  <circle cx="258" cy="168" r="5" fill="#00b4d8"/>
  <circle cx="130" cy="215" r="8" fill="#00a0c8"/>
  <circle cx="190" cy="210" r="6" fill="#00b4b0"/>
  <circle cx="248" cy="205" r="7" fill="#20b880"/>
  <circle cx="158" cy="245" r="9" fill="#40c060"/>
  <circle cx="225" cy="240" r="6" fill="#6bbf4e"/>
  <circle cx="188" cy="272" r="8" fill="#a0c030"/>
  <circle cx="255" cy="260" r="5" fill="#d0b020"/>
  <circle cx="215" cy="298" r="10" fill="#f7941d"/>
  <circle cx="190" cy="320" r="7" fill="#e84d3d"/>
  <circle cx="245" cy="315" r="6" fill="#e84d3d"/>

  <!-- Small satellite nodes -->
  <circle cx="145" cy="120" r="4" fill="#e91e8c"/>
  <circle cx="180" cy="138" r="3" fill="#8b3fa0" opacity="0.7"/>
  <circle cx="210" cy="145" r="3.5" fill="#7040b0" opacity="0.7"/>
  <circle cx="135" cy="195" r="3" fill="#3070c0" opacity="0.7"/>
  <circle cx="265" cy="185" r="3" fill="#00b4d8" opacity="0.7"/>
  <circle cx="115" cy="232" r="4" fill="#00a0c8" opacity="0.7"/>
  <circle cx="268" cy="225" r="3" fill="#40c060" opacity="0.7"/>
  <circle cx="140" cy="260" r="3.5" fill="#6bbf4e" opacity="0.7"/>
  <circle cx="245" cy="250" r="3" fill="#c0b020" opacity="0.7"/>
  <circle cx="170" cy="288" r="3" fill="#d0a020" opacity="0.7"/>
  <circle cx="238" cy="290" r="3.5" fill="#f09010" opacity="0.7"/>
  <circle cx="175" cy="332" r="4" fill="#e84d3d" opacity="0.7"/>

  <!-- Main Title -->
  <text x="200" y="370" text-anchor="middle" font-family="Inter, Arial, sans-serif" font-weight="800" fill="#1a3a5c">
    <tspan x="200" dy="0" font-size="40">Making</tspan>
    <tspan x="200" dy="48" font-size="50" fill="#00b4d8">AI</tspan>
    <tspan x="200" dy="38" font-size="28">Work for</tspan>
    <tspan x="200" dy="32" font-size="32">People</tspan>
  </text>

  <!-- Author Name -->
  <text x="200" y="505" text-anchor="middle" font-family="Inter, Arial, sans-serif" font-size="14" fill="#00b4d8" font-weight="700" letter-spacing="1">ASMAA IBRAHIM</text>

  <!-- Thin border -->
  <rect x="0.5" y="0.5" width="399" height="519" fill="none" stroke="#e2e8f0" stroke-width="1" rx="4"/>
</svg>