<svg xmlns="http://www.w3.org/2000/svg" viewBox="0 0 400 520" width="400" height="520">
  <defs>
    <style>
      @import url('https://fonts.googleapis.com/css2?family=Inter:wght@400;600;700;800&amp;display=swap');
    </style>
  </defs>

  <!-- Background -->
  <rect width="400" height="520" fill="#fafbfc" rx="4"/>

  <!-- Scattered small dots (confetti) -->
  <circle cx="50" cy="30" r="2" fill="#00b4d8" opacity="0.3"/>
  <circle cx="120" cy="20" r="1.5" fill="#f7941d" opacity="0.3"/>
  <circle cx="200" cy="15" r="2" fill="#3b82d0" opacity="0.25"/>
  <circle cx="280" cy="25" r="1.5" fill="#6bbf4e" opacity="0.3"/>
  <circle cx="340" cy="40" r="2" fill="#e84d3d" opacity="0.25"/>
  <circle cx="360" cy="80" r="1.5" fill="#00b4d8" opacity="0.3"/>
  <circle cx="30" cy="100" r="1.5" fill="#f7941d" opacity="0.25"/>
  <circle cx="370" cy="150" r="2" fill="#3b82d0" opacity="0.3"/>
  <circle cx="350" cy="200" r="1.5" fill="#6bbf4e" opacity="0.25"/>
  <circle cx="20" cy="250" r="2" fill="#e84d3d" opacity="0.3"/>
  <circle cx="380" cy="300" r="1.5" fill="#00b4d8" opacity="0.25"/>
  <circle cx="40" cy="340" r="2" fill="#f7941d" opacity="0.3"/>
  <circle cx="360" cy="360" r="1.5" fill="#3b82d0" opacity="0.25"/>
  <circle cx="25" cy="430" r="2" fill="#6bbf4e" opacity="0.3"/>
  <circle cx="375" cy="440" r="1.5" fill="#e84d3d" opacity="0.25"/>
  <circle cx="90" cy="50" r="1" fill="#e91e8c" opacity="0.2"/>
  <circle cx="310" cy="60" r="1" fill="#00b4d8" opacity="0.2"/>
  <circle cx="60" cy="180" r="1.5" fill="#3b82d0" opacity="0.2"/>
  <circle cx="350" cy="250" r="1" fill="#f7941d" opacity="0.2"/>
  <circle cx="45" cy="380" r="1" fill="#00b4d8" opacity="0.2"/>
  <circle cx="355" cy="400" r="1.5" fill="#6bbf4e" opacity="0.2"/>
  <circle cx="160" cy="45" r="1" fill="#e84d3d" opacity="0.2"/>
  <circle cx="250" cy="35" r="1.5" fill="#6bbf4e" opacity="0.2"/>
  <circle cx="80" cy="450" r="1" fill="#f7941d" opacity="0.2"/>
  <circle cx="320" cy="470" r="1.5" fill="#3b82d0" opacity="0.2"/>

  <!-- Subtitle -->
  <text x="200" y="80" text-anchor="middle" font-family="Inter, Arial, sans-serif" font-size="13" fill="#666666" font-weight="400">
    <tspan x="200" dy="0">A Framework for Designing and Building</tspan>
    <tspan x="200" dy="18">Impactful <tspan fill="#00b4d8" font-weight="600">AI-Powered</tspan> Applications</tspan>
  </text>

  <!-- Molecular Brain Network - two hemisphere shape -->
  <!-- Left hemisphere connections (warm: magenta/coral/orange) -->
  <line x1="140" y1="140" x2="120" y2="165" stroke="#e91e8c" stroke-width="2" opacity="0.5"/>
  <line x1="140" y1="140" x2="165" y2="160" stroke="#e84d3d" stroke-width="2" opacity="0.5"/>
  <line x1="120" y1="165" x2="100" y2="195" stroke="#e84d3d" stroke-width="2" opacity="0.5"/>
  <line x1="120" y1="165" x2="145" y2="190" stroke="#f7941d" stroke-width="2" opacity="0.5"/>
  <line x1="165" y1="160" x2="145" y2="190" stroke="#f7941d" stroke-width="2" opacity="0.5"/>
  <line x1="100" y1="195" x2="115" y2="225" stroke="#f7941d" stroke-width="2" opacity="0.5"/>
  <line x1="145" y1="190" x2="130" y2="220" stroke="#f7941d" stroke-width="2" opacity="0.5"/>
  <line x1="115" y1="225" x2="130" y2="220" stroke="#f7941d" stroke-width="2" opacity="0.5"/>

  <!-- Right hemisphere connections (cool: blue/teal) -->
  <line x1="195" y1="138" x2="220" y2="158" stroke="#2060b0" stroke-width="2" opacity="0.5"/>
  <line x1="195" y1="138" x2="180" y2="165" stroke="#3b82d0" stroke-width="2" opacity="0.5"/>
  <line x1="220" y1="158" x2="245" y2="180" stroke="#1a6fc0" stroke-width="2" opacity="0.5"/>
  <line x1="220" y1="158" x2="205" y2="188" stroke="#00b4d8" stroke-width="2" opacity="0.5"/>
  <line x1="180" y1="165" x2="205" y2="188" stroke="#3b82d0" stroke-width="2" opacity="0.5"/>
  <line x1="245" y1="180" x2="235" y2="210" stroke="#00b4d8" stroke-width="2" opacity="0.5"/>
  <line x1="205" y1="188" x2="220" y2="218" stroke="#00b4d8" stroke-width="2" opacity="0.5"/>
  <line x1="235" y1="210" x2="220" y2="218" stroke="#00b4d8" stroke-width="2" opacity="0.5"/>

  <!-- Stem connections (green/yellow/orange/red) -->
  <line x1="130" y1="220" x2="155" y2="248" stroke="#6bbf4e" stroke-width="2" opacity="0.5"/>
  <line x1="220" y1="218" x2="190" y2="248" stroke="#00b4d8" stroke-width="2" opacity="0.5"/>
  <line x1="155" y1="248" x2="170" y2="275" stroke="#6bbf4e" stroke-width="2" opacity="0.5"/>
  <line x1="190" y1="248" x2="170" y2="275" stroke="#40c060" stroke-width="2" opacity="0.5"/>
  <line x1="170" y1="275" x2="185" y2="305" stroke="#c0b020" stroke-width="2" opacity="0.5"/>
  <line x1="185" y1="305" x2="170" y2="330" stroke="#f7941d" stroke-width="2" opacity="0.5"/>
  <line x1="185" y1="305" x2="205" y2="325" stroke="#e84d3d" stroke-width="2" opacity="0.5"/>

  <!-- Left hemisphere nodes (warm colors) -->
  <circle cx="140" cy="140" r="8" fill="#e91e8c"/>
  <circle cx="120" cy="165" r="9" fill="#e84d3d"/>
  <circle cx="165" cy="160" r="6" fill="#e86040"/>
  <circle cx="100" cy="195" r="7" fill="#e84d3d"/>
  <circle cx="145" cy="190" r="8" fill="#f7941d"/>
  <circle cx="115" cy="225" r="6" fill="#f7941d"/>
  <circle cx="130" cy="220" r="7" fill="#f0a020"/>

  <!-- Right hemisphere nodes (cool colors) -->
  <circle cx="195" cy="138" r="8" fill="#2060b0"/>
  <circle cx="220" cy="158" r="9" fill="#3b82d0"/>
  <circle cx="180" cy="165" r="6" fill="#3b82d0"/>
  <circle cx="245" cy="180" r="7" fill="#1a6fc0"/>
  <circle cx="205" cy="188" r="8" fill="#00b4d8"/>
  <circle cx="235" cy="210" r="6" fill="#00b4d8"/>
  <circle cx="220" cy="218" r="7" fill="#00a0c8"/>

  <!-- Stem nodes (green/yellow/orange/red) -->
  <circle cx="155" cy="248" r="7" fill="#6bbf4e"/>
  <circle cx="190" cy="248" r="6" fill="#40c060"/>
  <circle cx="170" cy="275" r="9" fill="#6bbf4e"/>
  <circle cx="185" cy="305" r="10" fill="#f7941d"/>
  <circle cx="170" cy="330" r="7" fill="#e84d3d"/>
  <circle cx="205" cy="325" r="6" fill="#e84d3d"/>

  <!-- Small satellite nodes -->
  <circle cx="125" cy="130" r="3.5" fill="#e91e8c" opacity="0.7"/>
  <circle cx="155" cy="145" r="3" fill="#e86040" opacity="0.7"/>
  <circle cx="88" cy="185" r="3" fill="#e84d3d" opacity="0.7"/>
  <circle cx="108" cy="210" r="3" fill="#f0a020" opacity="0.7"/>
  <circle cx="210" cy="130" r="3.5" fill="#2060b0" opacity="0.7"/>
  <circle cx="240" cy="165" r="3" fill="#1a6fc0" opacity="0.7"/>
  <circle cx="255" cy="195" r="3" fill="#00b4d8" opacity="0.7"/>
  <circle cx="240" cy="228" r="3" fill="#00a0c8" opacity="0.7"/>
  <circle cx="140" cy="258" r="3" fill="#6bbf4e" opacity="0.7"/>
  <circle cx="205" cy="258" r="3" fill="#40c060" opacity="0.7"/>
  <circle cx="160" cy="290" r="3" fill="#c0b020" opacity="0.7"/>
  <circle cx="200" cy="290" r="3.5" fill="#f09010" opacity="0.7"/>
  <circle cx="155" cy="340" r="3.5" fill="#e84d3d" opacity="0.7"/>

  <!-- Main Title -->
  <text x="200" y="370" text-anchor="middle" font-family="Inter, Arial, sans-serif" font-weight="800" fill="#1a3a5c">
    <tspan x="200" dy="0" font-size="40">Making</tspan>
    <tspan x="200" dy="48" font-size="50" fill="#00b4d8">AI</tspan>
    <tspan x="200" dy="36" font-size="28">Work for</tspan>
    <tspan x="200" dy="30" font-size="32">People</tspan>
  </text>

  <!-- Author Name -->
  <text x="200" y="505" text-anchor="middle" font-family="Inter, Arial, sans-serif" font-size="14" fill="#00b4d8" font-weight="700" letter-spacing="1">ASMAA IBRAHIM</text>

  <!-- Thin border -->
  <rect x="0.5" y="0.5" width="399" height="519" fill="none" stroke="#e2e8f0" stroke-width="1" rx="4"/>
</svg>